solid Exported from Blender-3.2.2
facet normal 0.096930 0.779318 0.619086
outer loop
vertex 0.252723 0.306009 1.175101
vertex 0.448884 0.005225 1.523022
vertex 0.628198 0.039616 1.451655
endloop
endfacet
facet normal 0.096931 0.779318 0.619086
outer loop
vertex 0.252723 0.306009 1.175101
vertex 0.628198 0.039616 1.451655
vertex 0.432036 0.340401 1.103734
endloop
endfacet
facet normal 0.273517 0.798569 0.536167
outer loop
vertex 0.432036 0.340401 1.103734
vertex 0.628198 0.039616 1.451655
vertex 0.800359 0.043541 1.357983
endloop
endfacet
facet normal 0.273518 0.798569 0.536167
outer loop
vertex 0.432036 0.340401 1.103734
vertex 0.800359 0.043541 1.357983
vertex 0.604197 0.344326 1.010061
endloop
endfacet
facet normal 0.439595 0.787132 0.432643
outer loop
vertex 0.604197 0.344326 1.010061
vertex 0.800359 0.043541 1.357983
vertex 0.958752 0.016851 1.245604
endloop
endfacet
facet normal 0.439594 0.787132 0.432644
outer loop
vertex 0.604197 0.344326 1.010061
vertex 0.958752 0.016851 1.245604
vertex 0.762590 0.317636 0.897683
endloop
endfacet
facet normal 0.588778 0.745445 0.312493
outer loop
vertex 0.762590 0.317636 0.897683
vertex 0.958752 0.016851 1.245604
vertex 1.097289 -0.039430 1.118840
endloop
endfacet
facet normal 0.588778 0.745445 0.312493
outer loop
vertex 0.762590 0.317636 0.897683
vertex 1.097289 -0.039430 1.118840
vertex 0.901127 0.261355 0.770919
endloop
endfacet
facet normal 0.715334 0.675112 0.180335
outer loop
vertex 0.901127 0.261355 0.770919
vertex 1.097289 -0.039430 1.118840
vertex 1.210647 -0.123139 0.982559
endloop
endfacet
facet normal 0.715334 0.675112 0.180334
outer loop
vertex 0.901127 0.261355 0.770919
vertex 1.210647 -0.123139 0.982559
vertex 1.014485 0.177646 0.634638
endloop
endfacet
facet normal 0.814402 0.578833 0.041245
outer loop
vertex 1.014485 0.177646 0.634638
vertex 1.210647 -0.123139 0.982559
vertex 1.294469 -0.231058 0.842001
endloop
endfacet
facet normal 0.814402 0.578834 0.041245
outer loop
vertex 1.014485 0.177646 0.634638
vertex 1.294469 -0.231058 0.842001
vertex 1.098307 0.069726 0.494080
endloop
endfacet
facet normal 0.882172 0.460312 -0.099429
outer loop
vertex 1.098307 0.069726 0.494080
vertex 1.294469 -0.231058 0.842001
vertex 1.345534 -0.359041 0.702566
endloop
endfacet
facet normal 0.882172 0.460312 -0.099429
outer loop
vertex 1.098307 0.069726 0.494080
vertex 1.345534 -0.359041 0.702566
vertex 1.149372 -0.058257 0.354645
endloop
endfacet
facet normal 0.916040 0.324101 -0.236282
outer loop
vertex 1.149372 -0.058257 0.354645
vertex 1.345534 -0.359041 0.702566
vertex 1.361880 -0.502170 0.569613
endloop
endfacet
facet normal 0.916040 0.324100 -0.236282
outer loop
vertex 1.149372 -0.058257 0.354645
vertex 1.361880 -0.502170 0.569613
vertex 1.165718 -0.201385 0.221691
endloop
endfacet
facet normal 0.914706 0.175434 -0.364055
outer loop
vertex 1.165718 -0.201385 0.221691
vertex 1.361880 -0.502170 0.569613
vertex 1.342878 -0.654943 0.448250
endloop
endfacet
facet normal 0.914705 0.175435 -0.364055
outer loop
vertex 1.165718 -0.201385 0.221691
vertex 1.342878 -0.654943 0.448250
vertex 1.146716 -0.354158 0.100329
endloop
endfacet
facet normal 0.878220 0.020025 -0.477838
outer loop
vertex 1.146716 -0.354158 0.100329
vertex 1.342878 -0.654943 0.448250
vertex 1.289259 -0.811490 0.343143
endloop
endfacet
facet normal 0.878220 0.020025 -0.477837
outer loop
vertex 1.146716 -0.354158 0.100329
vertex 1.289259 -0.811490 0.343143
vertex 1.093098 -0.510705 -0.004778
endloop
endfacet
facet normal 0.807985 -0.136151 -0.573257
outer loop
vertex 1.093098 -0.510705 -0.004778
vertex 1.289259 -0.811490 0.343143
vertex 1.203084 -0.965794 0.258330
endloop
endfacet
facet normal 0.804576 -0.139302 -0.577280
outer loop
vertex 1.093098 -0.510705 -0.004778
vertex 1.203084 -0.965794 0.258330
vertex 1.004593 -0.649752 -0.094577
endloop
endfacet
facet normal 0.704548 -0.283812 -0.650433
outer loop
vertex 1.004593 -0.649752 -0.094577
vertex 1.203084 -0.965794 0.258330
vertex 1.087663 -1.111927 0.197071
endloop
endfacet
facet normal 0.673528 -0.304080 -0.673718
outer loop
vertex 1.004593 -0.649752 -0.094577
vertex 1.087663 -1.111927 0.197071
vertex 0.880631 -0.760366 -0.168579
endloop
endfacet
facet normal 0.566806 -0.409644 -0.714788
outer loop
vertex 0.880631 -0.760366 -0.168579
vertex 1.087663 -1.111927 0.197071
vertex 0.947433 -1.244272 0.161719
endloop
endfacet
facet normal 0.488322 -0.444983 -0.750687
outer loop
vertex 0.880631 -0.760366 -0.168579
vertex 0.947433 -1.244272 0.161719
vertex 0.709057 -0.850427 -0.226802
endloop
endfacet
facet normal 0.333006 -0.552337 -0.764219
outer loop
vertex 0.709057 -0.850427 -0.226802
vertex 0.947433 -1.244272 0.161719
vertex 0.762636 -1.323515 0.138467
endloop
endfacet
facet normal 0.450863 -0.512945 -0.730486
outer loop
vertex 0.709057 -0.850427 -0.226802
vertex 0.762636 -1.323515 0.138467
vertex 0.559289 -0.976212 -0.230916
endloop
endfacet
facet normal 0.141542 -0.681138 -0.718343
outer loop
vertex 0.559289 -0.976212 -0.230916
vertex 0.762636 -1.323515 0.138467
vertex 0.468107 -1.414442 0.166651
endloop
endfacet
facet normal 0.220710 -0.680132 -0.699076
outer loop
vertex 0.559289 -0.976212 -0.230916
vertex 0.468107 -1.414442 0.166651
vertex 0.317931 -1.095261 -0.191293
endloop
endfacet
facet normal 0.081185 -0.726739 -0.682099
outer loop
vertex 0.317931 -1.095261 -0.191293
vertex 0.468107 -1.414442 0.166651
vertex 0.288532 -1.477977 0.212970
endloop
endfacet
facet normal 0.093779 -0.726391 -0.680854
outer loop
vertex 0.317931 -1.095261 -0.191293
vertex 0.288532 -1.477977 0.212970
vertex 0.092370 -1.177192 -0.134951
endloop
endfacet
facet normal 0.083383 -0.730118 -0.678214
outer loop
vertex -0.247131 -0.324286 -1.225134
vertex -0.050970 -0.625070 -0.877213
vertex -0.230545 -0.688605 -0.830893
endloop
endfacet
facet normal 0.083383 -0.730118 -0.678214
outer loop
vertex -0.247131 -0.324286 -1.225134
vertex -0.230545 -0.688605 -0.830893
vertex -0.426707 -0.387820 -1.178814
endloop
endfacet
facet normal 0.096930 0.779318 0.619086
outer loop
vertex -0.139601 0.907579 0.479259
vertex 0.056561 0.606794 0.827180
vertex 0.235874 0.641185 0.755813
endloop
endfacet
facet normal 0.096930 0.779318 0.619087
outer loop
vertex -0.139601 0.907579 0.479259
vertex 0.235874 0.641185 0.755813
vertex 0.039713 0.941970 0.407892
endloop
endfacet
facet normal 0.439595 0.787132 0.432643
outer loop
vertex 0.211874 0.945896 0.314219
vertex 0.408036 0.645111 0.662140
vertex 0.566428 0.618421 0.549762
endloop
endfacet
facet normal 0.439595 0.787132 0.432643
outer loop
vertex 0.211874 0.945896 0.314219
vertex 0.566428 0.618421 0.549762
vertex 0.370267 0.919205 0.201841
endloop
endfacet
facet normal 0.588778 0.745445 0.312493
outer loop
vertex 0.370267 0.919205 0.201841
vertex 0.566428 0.618421 0.549762
vertex 0.704965 0.562140 0.422997
endloop
endfacet
facet normal 0.588778 0.745445 0.312493
outer loop
vertex 0.370267 0.919205 0.201841
vertex 0.704965 0.562140 0.422997
vertex 0.508804 0.862924 0.075076
endloop
endfacet
facet normal 0.715334 0.675112 0.180335
outer loop
vertex 0.508804 0.862924 0.075076
vertex 0.704965 0.562140 0.422997
vertex 0.818323 0.478431 0.286717
endloop
endfacet
facet normal 0.715335 0.675112 0.180334
outer loop
vertex 0.508804 0.862924 0.075076
vertex 0.818323 0.478431 0.286717
vertex 0.622162 0.779216 -0.061204
endloop
endfacet
facet normal 0.814402 0.578834 0.041245
outer loop
vertex 0.622162 0.779216 -0.061204
vertex 0.818323 0.478431 0.286717
vertex 0.902145 0.370511 0.146159
endloop
endfacet
facet normal 0.814402 0.578834 0.041245
outer loop
vertex 0.622162 0.779216 -0.061204
vertex 0.902145 0.370511 0.146159
vertex 0.705984 0.671296 -0.201762
endloop
endfacet
facet normal 0.882171 0.460312 -0.099429
outer loop
vertex 0.705984 0.671296 -0.201762
vertex 0.902145 0.370511 0.146159
vertex 0.953211 0.242528 0.006724
endloop
endfacet
facet normal 0.882171 0.460312 -0.099429
outer loop
vertex 0.705984 0.671296 -0.201762
vertex 0.953211 0.242528 0.006724
vertex 0.757049 0.543313 -0.341197
endloop
endfacet
facet normal 0.916040 0.324101 -0.236282
outer loop
vertex 0.757049 0.543313 -0.341197
vertex 0.953211 0.242528 0.006724
vertex 0.969556 0.099400 -0.126230
endloop
endfacet
facet normal 0.916040 0.324100 -0.236282
outer loop
vertex 0.757049 0.543313 -0.341197
vertex 0.969556 0.099400 -0.126230
vertex 0.773395 0.400185 -0.474151
endloop
endfacet
facet normal 0.914706 0.175434 -0.364055
outer loop
vertex 0.773395 0.400185 -0.474151
vertex 0.969556 0.099400 -0.126230
vertex 0.950555 -0.053373 -0.247592
endloop
endfacet
facet normal 0.914706 0.175433 -0.364055
outer loop
vertex 0.773395 0.400185 -0.474151
vertex 0.950555 -0.053373 -0.247592
vertex 0.754393 0.247412 -0.595513
endloop
endfacet
facet normal 0.878220 0.020026 -0.477837
outer loop
vertex 0.754393 0.247412 -0.595513
vertex 0.950555 -0.053373 -0.247592
vertex 0.896936 -0.209920 -0.352699
endloop
endfacet
facet normal 0.878220 0.020025 -0.477838
outer loop
vertex 0.754393 0.247412 -0.595513
vertex 0.896936 -0.209920 -0.352699
vertex 0.700774 0.090865 -0.700620
endloop
endfacet
facet normal 0.807984 -0.136152 -0.573257
outer loop
vertex 0.700774 0.090865 -0.700620
vertex 0.896936 -0.209920 -0.352699
vertex 0.810760 -0.364225 -0.437512
endloop
endfacet
facet normal 0.807985 -0.136152 -0.573257
outer loop
vertex 0.700774 0.090865 -0.700620
vertex 0.810760 -0.364225 -0.437512
vertex 0.614599 -0.063440 -0.785433
endloop
endfacet
facet normal 0.706698 -0.287098 -0.646647
outer loop
vertex 0.614599 -0.063440 -0.785433
vertex 0.810760 -0.364225 -0.437512
vertex 0.695340 -0.510358 -0.498771
endloop
endfacet
facet normal 0.706699 -0.287098 -0.646647
outer loop
vertex 0.614599 -0.063440 -0.785433
vertex 0.695340 -0.510358 -0.498771
vertex 0.499178 -0.209573 -0.846692
endloop
endfacet
facet normal 0.578255 -0.427010 -0.695186
outer loop
vertex 0.499178 -0.209573 -0.846692
vertex 0.695340 -0.510358 -0.498771
vertex 0.555110 -0.642703 -0.534123
endloop
endfacet
facet normal 0.528385 -0.450904 -0.719371
outer loop
vertex 0.499178 -0.209573 -0.846692
vertex 0.555110 -0.642703 -0.534123
vertex 0.312252 -0.347567 -0.897496
endloop
endfacet
facet normal 0.423251 -0.543869 -0.724614
outer loop
vertex 0.312252 -0.347567 -0.897496
vertex 0.555110 -0.642703 -0.534123
vertex 0.395459 -0.756174 -0.542208
endloop
endfacet
facet normal 0.518564 -0.498462 -0.694714
outer loop
vertex 0.312252 -0.347567 -0.897496
vertex 0.395459 -0.756174 -0.542208
vertex 0.187823 -0.497318 -0.882928
endloop
endfacet
facet normal 0.273518 0.798569 0.536167
outer loop
vertex 0.039713 0.941970 0.407892
vertex 0.235874 0.641185 0.755813
vertex 0.408036 0.645111 0.662140
endloop
endfacet
facet normal 0.273518 0.798569 0.536167
outer loop
vertex 0.039713 0.941970 0.407892
vertex 0.408036 0.645111 0.662140
vertex 0.211874 0.945896 0.314219
endloop
endfacet
facet normal 0.276198 -0.676735 -0.682455
outer loop
vertex 0.187823 -0.497318 -0.882928
vertex 0.395459 -0.756174 -0.542208
vertex 0.222523 -0.846411 -0.522717
endloop
endfacet
facet normal 0.336861 -0.659707 -0.671797
outer loop
vertex 0.187823 -0.497318 -0.882928
vertex 0.222523 -0.846411 -0.522717
vertex -0.050970 -0.625070 -0.877213
endloop
endfacet
facet normal 0.166484 -0.773574 -0.611447
outer loop
vertex -0.050970 -0.625070 -0.877213
vertex 0.222523 -0.846411 -0.522717
vertex -0.063993 -0.937288 -0.485756
endloop
endfacet
facet normal 0.116259 -0.778372 -0.616945
outer loop
vertex -0.050970 -0.625070 -0.877213
vertex -0.063993 -0.937288 -0.485756
vertex -0.230545 -0.688605 -0.830893
endloop
endfacet
facet normal 0.304138 -0.601534 -0.738686
outer loop
vertex 0.003136 -0.154604 -1.238050
vertex 0.187823 -0.497318 -0.882928
vertex -0.050970 -0.625070 -0.877213
endloop
endfacet
facet normal 0.364791 -0.592701 -0.718076
outer loop
vertex 0.003136 -0.154604 -1.238050
vertex -0.050970 -0.625070 -0.877213
vertex -0.247131 -0.324286 -1.225134
endloop
endfacet
facet normal 0.273518 0.798569 0.536167
outer loop
vertex -0.156449 1.242755 0.059971
vertex 0.039713 0.941970 0.407892
vertex 0.211874 0.945896 0.314219
endloop
endfacet
facet normal 0.273518 0.798569 0.536167
outer loop
vertex -0.156449 1.242755 0.059971
vertex 0.211874 0.945896 0.314219
vertex 0.015712 1.246681 -0.033702
endloop
endfacet
facet normal 0.519478 -0.499110 -0.693564
outer loop
vertex 0.162786 -0.041133 -1.229965
vertex 0.312252 -0.347567 -0.897496
vertex 0.187823 -0.497318 -0.882928
endloop
endfacet
facet normal 0.417750 -0.535460 -0.734008
outer loop
vertex 0.162786 -0.041133 -1.229965
vertex 0.187823 -0.497318 -0.882928
vertex 0.003136 -0.154604 -1.238050
endloop
endfacet
facet normal 0.535368 -0.465817 -0.704554
outer loop
vertex 0.303016 0.091212 -1.194613
vertex 0.499178 -0.209573 -0.846692
vertex 0.312252 -0.347567 -0.897496
endloop
endfacet
facet normal 0.589457 -0.444384 -0.674584
outer loop
vertex 0.303016 0.091212 -1.194613
vertex 0.312252 -0.347567 -0.897496
vertex 0.162786 -0.041133 -1.229965
endloop
endfacet
facet normal 0.706699 -0.287098 -0.646646
outer loop
vertex 0.418437 0.237345 -1.133354
vertex 0.614599 -0.063440 -0.785433
vertex 0.499178 -0.209573 -0.846692
endloop
endfacet
facet normal 0.706699 -0.287098 -0.646647
outer loop
vertex 0.418437 0.237345 -1.133354
vertex 0.499178 -0.209573 -0.846692
vertex 0.303016 0.091212 -1.194613
endloop
endfacet
facet normal 0.807984 -0.136152 -0.573257
outer loop
vertex 0.504612 0.391650 -1.048541
vertex 0.700774 0.090865 -0.700620
vertex 0.614599 -0.063440 -0.785433
endloop
endfacet
facet normal 0.807985 -0.136152 -0.573257
outer loop
vertex 0.504612 0.391650 -1.048541
vertex 0.614599 -0.063440 -0.785433
vertex 0.418437 0.237345 -1.133354
endloop
endfacet
facet normal 0.878220 0.020026 -0.477838
outer loop
vertex 0.558231 0.548197 -0.943434
vertex 0.754393 0.247412 -0.595513
vertex 0.700774 0.090865 -0.700620
endloop
endfacet
facet normal 0.878220 0.020026 -0.477837
outer loop
vertex 0.558231 0.548197 -0.943434
vertex 0.700774 0.090865 -0.700620
vertex 0.504612 0.391650 -1.048541
endloop
endfacet
facet normal 0.914706 0.175434 -0.364055
outer loop
vertex 0.577233 0.700970 -0.822072
vertex 0.773395 0.400185 -0.474151
vertex 0.754393 0.247412 -0.595513
endloop
endfacet
facet normal 0.914706 0.175434 -0.364055
outer loop
vertex 0.577233 0.700970 -0.822072
vertex 0.754393 0.247412 -0.595513
vertex 0.558231 0.548197 -0.943434
endloop
endfacet
facet normal 0.916040 0.324101 -0.236282
outer loop
vertex 0.560887 0.844098 -0.689118
vertex 0.757049 0.543313 -0.341197
vertex 0.773395 0.400185 -0.474151
endloop
endfacet
facet normal 0.916040 0.324101 -0.236282
outer loop
vertex 0.560887 0.844098 -0.689118
vertex 0.773395 0.400185 -0.474151
vertex 0.577233 0.700970 -0.822072
endloop
endfacet
facet normal 0.882172 0.460312 -0.099429
outer loop
vertex 0.509822 0.972081 -0.549683
vertex 0.705984 0.671296 -0.201762
vertex 0.757049 0.543313 -0.341197
endloop
endfacet
facet normal 0.882171 0.460313 -0.099428
outer loop
vertex 0.509822 0.972081 -0.549683
vertex 0.757049 0.543313 -0.341197
vertex 0.560887 0.844098 -0.689118
endloop
endfacet
facet normal 0.814402 0.578834 0.041245
outer loop
vertex 0.426000 1.080001 -0.409125
vertex 0.622162 0.779216 -0.061204
vertex 0.705984 0.671296 -0.201762
endloop
endfacet
facet normal 0.814402 0.578834 0.041245
outer loop
vertex 0.426000 1.080001 -0.409125
vertex 0.705984 0.671296 -0.201762
vertex 0.509822 0.972081 -0.549683
endloop
endfacet
facet normal 0.715335 0.675112 0.180334
outer loop
vertex 0.312642 1.163709 -0.272845
vertex 0.508804 0.862924 0.075076
vertex 0.622162 0.779216 -0.061204
endloop
endfacet
facet normal 0.715335 0.675112 0.180334
outer loop
vertex 0.312642 1.163709 -0.272845
vertex 0.622162 0.779216 -0.061204
vertex 0.426000 1.080001 -0.409125
endloop
endfacet
facet normal 0.588778 0.745445 0.312493
outer loop
vertex 0.174105 1.219990 -0.146080
vertex 0.370267 0.919205 0.201841
vertex 0.508804 0.862924 0.075076
endloop
endfacet
facet normal 0.588778 0.745445 0.312493
outer loop
vertex 0.174105 1.219990 -0.146080
vertex 0.508804 0.862924 0.075076
vertex 0.312642 1.163709 -0.272845
endloop
endfacet
facet normal 0.439595 0.787132 0.432643
outer loop
vertex 0.015712 1.246681 -0.033702
vertex 0.211874 0.945896 0.314219
vertex 0.370267 0.919205 0.201841
endloop
endfacet
facet normal 0.439595 0.787132 0.432643
outer loop
vertex 0.015712 1.246681 -0.033702
vertex 0.370267 0.919205 0.201841
vertex 0.174105 1.219990 -0.146080
endloop
endfacet
facet normal 0.096930 0.779318 0.619086
outer loop
vertex -0.335763 1.208364 0.131338
vertex -0.139601 0.907579 0.479259
vertex 0.039713 0.941970 0.407892
endloop
endfacet
facet normal 0.096930 0.779318 0.619086
outer loop
vertex -0.335763 1.208364 0.131338
vertex 0.039713 0.941970 0.407892
vertex -0.156449 1.242755 0.059971
endloop
endfacet
facet normal 0.127064 -0.775283 -0.618701
outer loop
vertex 0.222523 -0.846411 -0.522717
vertex 0.317931 -1.095261 -0.191293
vertex 0.092370 -1.177192 -0.134951
endloop
endfacet
facet normal 0.168255 -0.777121 -0.606443
outer loop
vertex 0.222523 -0.846411 -0.522717
vertex 0.092370 -1.177192 -0.134951
vertex -0.063993 -0.937288 -0.485756
endloop
endfacet
facet normal 0.251106 -0.723212 -0.643359
outer loop
vertex 0.395459 -0.756174 -0.542208
vertex 0.559289 -0.976212 -0.230916
vertex 0.317931 -1.095261 -0.191293
endloop
endfacet
facet normal 0.303928 -0.717778 -0.626437
outer loop
vertex 0.395459 -0.756174 -0.542208
vertex 0.317931 -1.095261 -0.191293
vertex 0.222523 -0.846411 -0.522717
endloop
endfacet
facet normal 0.503028 -0.577929 -0.642620
outer loop
vertex 0.555110 -0.642703 -0.534123
vertex 0.709057 -0.850427 -0.226802
vertex 0.559289 -0.976212 -0.230916
endloop
endfacet
facet normal 0.456613 -0.595333 -0.661123
outer loop
vertex 0.555110 -0.642703 -0.534123
vertex 0.559289 -0.976212 -0.230916
vertex 0.395459 -0.756174 -0.542208
endloop
endfacet
facet normal 0.507568 -0.525559 -0.682761
outer loop
vertex 0.695340 -0.510358 -0.498771
vertex 0.880631 -0.760366 -0.168579
vertex 0.709057 -0.850427 -0.226802
endloop
endfacet
facet normal 0.611090 -0.479207 -0.630023
outer loop
vertex 0.695340 -0.510358 -0.498771
vertex 0.709057 -0.850427 -0.226802
vertex 0.555110 -0.642703 -0.534123
endloop
endfacet
facet normal 0.681453 -0.324983 -0.655750
outer loop
vertex 0.810760 -0.364225 -0.437512
vertex 1.004593 -0.649752 -0.094577
vertex 0.880631 -0.760366 -0.168579
endloop
endfacet
facet normal 0.715848 -0.301353 -0.629879
outer loop
vertex 0.810760 -0.364225 -0.437512
vertex 0.880631 -0.760366 -0.168579
vertex 0.695340 -0.510358 -0.498771
endloop
endfacet
facet normal 0.805386 -0.140779 -0.575791
outer loop
vertex 0.896936 -0.209920 -0.352699
vertex 1.093098 -0.510705 -0.004778
vertex 1.004593 -0.649752 -0.094577
endloop
endfacet
facet normal 0.808870 -0.137513 -0.571681
outer loop
vertex 0.896936 -0.209920 -0.352699
vertex 1.004593 -0.649752 -0.094577
vertex 0.810760 -0.364225 -0.437512
endloop
endfacet
facet normal 0.878220 0.020027 -0.477837
outer loop
vertex 0.950555 -0.053373 -0.247592
vertex 1.146716 -0.354158 0.100329
vertex 1.093098 -0.510705 -0.004778
endloop
endfacet
facet normal 0.878220 0.020026 -0.477837
outer loop
vertex 0.950555 -0.053373 -0.247592
vertex 1.093098 -0.510705 -0.004778
vertex 0.896936 -0.209920 -0.352699
endloop
endfacet
facet normal 0.914706 0.175434 -0.364055
outer loop
vertex 0.969556 0.099400 -0.126230
vertex 1.165718 -0.201385 0.221691
vertex 1.146716 -0.354158 0.100329
endloop
endfacet
facet normal 0.914706 0.175433 -0.364055
outer loop
vertex 0.969556 0.099400 -0.126230
vertex 1.146716 -0.354158 0.100329
vertex 0.950555 -0.053373 -0.247592
endloop
endfacet
facet normal 0.916040 0.324100 -0.236282
outer loop
vertex 0.953211 0.242528 0.006724
vertex 1.149372 -0.058257 0.354645
vertex 1.165718 -0.201385 0.221691
endloop
endfacet
facet normal 0.916040 0.324101 -0.236282
outer loop
vertex 0.953211 0.242528 0.006724
vertex 1.165718 -0.201385 0.221691
vertex 0.969556 0.099400 -0.126230
endloop
endfacet
facet normal 0.882171 0.460312 -0.099429
outer loop
vertex 0.902145 0.370511 0.146159
vertex 1.098307 0.069726 0.494080
vertex 1.149372 -0.058257 0.354645
endloop
endfacet
facet normal 0.882171 0.460313 -0.099429
outer loop
vertex 0.902145 0.370511 0.146159
vertex 1.149372 -0.058257 0.354645
vertex 0.953211 0.242528 0.006724
endloop
endfacet
facet normal 0.814402 0.578834 0.041245
outer loop
vertex 0.818323 0.478431 0.286717
vertex 1.014485 0.177646 0.634638
vertex 1.098307 0.069726 0.494080
endloop
endfacet
facet normal 0.814402 0.578834 0.041245
outer loop
vertex 0.818323 0.478431 0.286717
vertex 1.098307 0.069726 0.494080
vertex 0.902145 0.370511 0.146159
endloop
endfacet
facet normal 0.715335 0.675112 0.180334
outer loop
vertex 0.704965 0.562140 0.422997
vertex 0.901127 0.261355 0.770919
vertex 1.014485 0.177646 0.634638
endloop
endfacet
facet normal 0.715335 0.675112 0.180334
outer loop
vertex 0.704965 0.562140 0.422997
vertex 1.014485 0.177646 0.634638
vertex 0.818323 0.478431 0.286717
endloop
endfacet
facet normal 0.588778 0.745445 0.312493
outer loop
vertex 0.566428 0.618421 0.549762
vertex 0.762590 0.317636 0.897683
vertex 0.901127 0.261355 0.770919
endloop
endfacet
facet normal 0.588778 0.745445 0.312493
outer loop
vertex 0.566428 0.618421 0.549762
vertex 0.901127 0.261355 0.770919
vertex 0.704965 0.562140 0.422997
endloop
endfacet
facet normal 0.439594 0.787132 0.432643
outer loop
vertex 0.408036 0.645111 0.662140
vertex 0.604197 0.344326 1.010061
vertex 0.762590 0.317636 0.897683
endloop
endfacet
facet normal 0.439595 0.787132 0.432643
outer loop
vertex 0.408036 0.645111 0.662140
vertex 0.762590 0.317636 0.897683
vertex 0.566428 0.618421 0.549762
endloop
endfacet
facet normal 0.273518 0.798569 0.536167
outer loop
vertex 0.235874 0.641185 0.755813
vertex 0.432036 0.340401 1.103734
vertex 0.604197 0.344326 1.010061
endloop
endfacet
facet normal 0.273517 0.798569 0.536167
outer loop
vertex 0.235874 0.641185 0.755813
vertex 0.604197 0.344326 1.010061
vertex 0.408036 0.645111 0.662140
endloop
endfacet
facet normal 0.096930 0.779318 0.619086
outer loop
vertex 0.056561 0.606794 0.827180
vertex 0.252723 0.306009 1.175101
vertex 0.432036 0.340401 1.103734
endloop
endfacet
facet normal 0.096931 0.779318 0.619086
outer loop
vertex 0.056561 0.606794 0.827180
vertex 0.432036 0.340401 1.103734
vertex 0.235874 0.641185 0.755813
endloop
endfacet
endsolid Exported from Blender-3.2.2
